<svg width="25" height="25" viewBox="0 0 25 25" fill="none" xmlns="http://www.w3.org/2000/svg">
<path d="M23.125 6.25H17.5V4.375C17.5 3.34125 16.6588 2.5 15.625 2.5H9.375C8.34125 2.5 7.5 3.34125 7.5 4.375V6.25H1.875C0.84125 6.25 0 7.09125 0 8.125V21.875C0 22.9088 0.84125 23.75 1.875 23.75H23.125C24.1588 23.75 25 22.9088 25 21.875V8.125C25 7.09125 24.1588 6.25 23.125 6.25ZM8.75 4.375C8.75 4.03 9.03 3.75 9.375 3.75H15.625C15.97 3.75 16.25 4.03 16.25 4.375V6.25H8.75V4.375ZM1.875 7.5H23.125C23.47 7.5 23.75 7.78 23.75 8.125V17.5H21.25V16.875C21.25 16.53 20.97 16.25 20.625 16.25H18.125C17.78 16.25 17.5 16.53 17.5 16.875V17.5H7.5V16.875C7.5 16.53 7.22 16.25 6.875 16.25H4.375C4.03 16.25 3.75 16.53 3.75 16.875V17.5H1.25V8.125C1.25 7.78 1.53 7.5 1.875 7.5ZM20 17.5V18.75H18.75V17.5H20ZM6.25 17.5V18.75H5V17.5H6.25ZM23.125 22.5H1.875C1.53 22.5 1.25 22.22 1.25 21.875V18.75H3.75V19.375C3.75 19.72 4.03 20 4.375 20H6.875C7.22 20 7.5 19.72 7.5 19.375V18.75H17.5V19.375C17.5 19.72 17.78 20 18.125 20H20.625C20.97 20 21.25 19.72 21.25 19.375V18.75H23.75V21.875C23.75 22.22 23.47 22.5 23.125 22.5Z" fill="#5da9e9"/>
</svg>
