<svg width="154" height="176" viewBox="0 0 154 176" fill="none" xmlns="http://www.w3.org/2000/svg">
<path d="M24.5 81.7273V79.2273C23.1193 79.2273 22 80.3466 22 81.7273H24.5ZM130 81.7273H132.5C132.5 80.3466 131.381 79.2273 130 79.2273V81.7273ZM130 150.727V153.227C131.381 153.227 132.5 152.108 132.5 150.727H130ZM24.5 150.727H22C22 152.108 23.1193 153.227 24.5 153.227V150.727ZM59.9999 58L62.4999 58L62.4999 55.5L59.9999 55.5L59.9999 58ZM24.4999 58L24.4999 55.5L21.9999 55.5L21.9999 58L24.4999 58ZM22 130.5L131 130.5L131 125.5L22 125.5L22 130.5ZM24.5 84.2273H130V79.2273H24.5V84.2273ZM127.5 81.7273V150.727H132.5V81.7273H127.5ZM130 148.227H24.5V153.227H130V148.227ZM27 150.727V81.7273H22V150.727H27ZM22 107.5L131 107.5L131 102.5L22 102.5L22 107.5ZM57.4999 58L57.4999 149.5L62.4999 149.5L62.4999 58L57.4999 58ZM59.9999 55.5L24.4999 55.5L24.4999 60.5L59.9999 60.5L59.9999 55.5ZM21.9999 58L22 88.5L27 88.5L26.9999 58L21.9999 58ZM92.5 80.5V149.5H97.5V80.5H92.5Z" fill="#95A5A6"/>
<path d="M106.5 3H13C7.47715 3 3 7.47715 3 13V163.5C3 169.023 7.47715 173.5 13 173.5H141C146.523 173.5 151 169.023 151 163.5V48M106.5 3L151 48M106.5 3V38C106.5 43.5228 110.977 48 116.5 48H151" stroke="#95A5A6" stroke-width="5" stroke-linecap="round" stroke-linejoin="round"/>
</svg>
