<svg width="25" height="25" viewBox="0 0 25 25" fill="none" xmlns="http://www.w3.org/2000/svg">
<path d="M11.875 13.75C8.08375 13.75 5 10.6663 5 6.875C5 3.08375 8.08375 0 11.875 0C15.6663 0 18.75 3.08375 18.75 6.875C18.75 10.6663 15.6663 13.75 11.875 13.75ZM11.875 1.25C8.77375 1.25 6.25 3.77375 6.25 6.875C6.25 9.97625 8.77375 12.5 11.875 12.5C14.9762 12.5 17.5 9.97625 17.5 6.875C17.5 3.77375 14.9762 1.25 11.875 1.25Z" fill="#5da9e9"/>
<path d="M21.875 25H1.875C0.84125 25 0 24.1587 0 23.125C0 23.04 0.0175001 21.0187 1.53125 19C2.4125 17.825 3.61875 16.8912 5.1175 16.2262C6.9475 15.4125 9.22125 15 11.875 15C14.5287 15 16.8025 15.4125 18.6325 16.2262C20.1313 16.8925 21.3375 17.825 22.2188 19C23.7325 21.0187 23.75 23.04 23.75 23.125C23.75 24.1587 22.9088 25 21.875 25ZM11.875 16.25C7.51625 16.25 4.3 17.4412 2.57375 19.695C1.28 21.3837 1.25125 23.11 1.25 23.1275C1.25 23.47 1.53 23.75 1.875 23.75H21.875C22.22 23.75 22.5 23.47 22.5 23.125C22.5 23.11 22.4713 21.3837 21.1763 19.695C19.4487 17.4412 16.2325 16.25 11.875 16.25Z" fill="#5da9e9"/>
</svg>
