<svg width="160" height="182" viewBox="0 0 160 182" fill="none" xmlns="http://www.w3.org/2000/svg">
<path d="M158.54 44.8461L113.54 1.92944C112.6 1.03296 111.33 0.537033 110 0.537033H15C6.73 0.537033 0 6.95546 0 14.8426V167.435C0 175.322 6.73 181.741 15 181.741H145C153.27 181.741 160 175.322 160 167.435V48.2222C160 46.9538 159.47 45.7426 158.54 44.8461ZM147.93 48.2222H115C112.24 48.2222 110 46.0859 110 43.4537V12.0482L147.93 48.2222ZM150 167.435C150 170.067 147.76 172.204 145 172.204H15C12.24 172.204 10 170.067 10 167.435V14.8426C10 12.2104 12.24 10.0741 15 10.0741H100V43.4537C100 51.3408 106.73 57.7592 115 57.7592H150V167.435Z" fill="#B4B4B4"/>
<rect x="30" y="82" width="99" height="71" rx="5" stroke="#B4B4B4" stroke-width="10" stroke-linecap="round" stroke-linejoin="round"/>
<line x1="25" y1="130" x2="134" y2="130" stroke="#B4B4B4" stroke-width="10"/>
<line x1="25" y1="107" x2="134" y2="107" stroke="#B4B4B4" stroke-width="10"/>
<line x1="80" y1="81" x2="80" y2="158" stroke="#B4B4B4" stroke-width="10"/>
</svg>
